<svg xmlns="http://www.w3.org/2000/svg" width="110" zoomAndPan="magnify" viewBox="0 0 82.5 82.5" height="110" preserveAspectRatio="xMidYMid meet" xmlns:v="https://vecta.io/nano"><defs><clipPath id="A"><path d="M0 0h82.004v82.004H0zm0 0" clip-rule="nonzero"/></clipPath><clipPath id="B"><path d="M9.883 4.074h61.875V62H9.883zm0 0" clip-rule="nonzero"/></clipPath><clipPath id="C"><path d="M20 22h40v55.875H20zm0 0" clip-rule="nonzero"/></clipPath></defs><g clip-path="url(#A)" fill="#fff"><path d="M0 0h82.004v82.004H0zm0 0"/><path d="M0 0h82.004v82.004H0zm0 0"/></g><g clip-path="url(#B)"><path fill="#09622f" d="M41.184 30.215c-.223-.789-.109-2.703.68-3.156 1.238-.672 1.688 1.129 1.574 2.031-.227.563-.676 1.238-1.465 1.125zm-24.281-1.891c-.355.434-.602.957-.687 1.582-.297 2.191 2.645 2.609 4.238 2.227 2.816-.68 6.422-4.285 1.805-5.297-1.727-.375-4.16.035-5.355 1.488zm3.355 8.5c-.359-.402-.859-.629-1.52-.527-1.734.266-1.98 2.926-2.117 4.285 0 1.125-.227 2.48 1.352 2.48 1.129 0 2.48-1.691 2.82-2.594.363-.973.262-2.746-.535-3.645zm33.574 18.402c-.637-.828-.133-2.129.383-2.891.621-.922 1.594-1.598 2.746-1.391 1.012.227 1.688 1.469 1.465 2.594-.242 1.332-2.086 2.617-3.41 2.324-.324-.07-.656-.164-.93-.379a1.44 1.44 0 0 1-.254-.258zm-7.578 1.059c0-.766.379-1.207.902-1.73.676-.676 1.918-.676 2.707-.453 2.25.566 2.363 3.832-.113 3.945-.93.043-2.07-.039-2.855-.59-.391-.27-.637-.652-.641-1.137v-.035zm-28.871-4.25c-.328-.629-.352-1.395.039-2.047.363-.602 1.051-1.129 1.793-.957 1.238.449 2.477 3.719 1.238 4.395-.781.348-1.875-.184-2.48-.672a2.3 2.3 0 0 1-.59-.719zm21.551-12.242c-.789.789-4.172-4.621-1.016-5.297 1.914-.449 3.605 2.703 2.93 4.281-.34.68-1.125 1.691-2.027 1.129zm.789 8.789c-.789.449-1.465 1.461-.676 2.254.785.898 2.027-.113 1.801-1.125-.113-1.016-1.238-1.578-1.914-.566zm1.688-6.648c-1.238.676-2.48 2.367-1.125 3.605 1.238 1.238 3.152-.34 2.816-1.914-.113-1.578-1.918-2.594-2.93-.902zm13.746-5.859c-.223.676.68 1.801 1.469 1.578 1.238-.34.672-2.367-.566-2.254-.562.113-1.242.449-.789 1.129zm-2.367 3.27c-1.238.676-1.465 3.266-.223 4.055 1.914 1.129 3.941-2.141 2.141-3.719-.789-.676-2.141-.902-2.254.566zm8.68-6.312c-1.914 1.352-2.707-5.633-.789-7.098 3.266-2.367 6.984 2.59 6.535 5.52-.34 2.93-1.578 4.395-4.508 3.27zm-8.34-3.266l-.902-.34c1.465 1.242 3.27 1.242 4.848.227 2.027-1.238 1.574-5.07-1.129-5.184-2.141-.113-4.168 3.605-2.816 5.297zm-2.816-5.973c-.676-.676-.449-2.254-.227-3.156.453-1.801 1.578-2.363 3.383-1.914 3.156.789 2.93 4.055.109 5.184-1.465.676-3.379.676-4.055-1.129zm-5.973-.562c-2.367.109-2.816-2.93-1.918-4.621 2.031-3.719 6.652-1.238 6.426 2.48-.227 1.801-1.691 2.816-3.492 2.477zm15.438 23.324c-.676-.789-.902-2.93.336-3.383 1.578-.789 1.918 1.465 1.691 2.594-.336.898-1.238 1.125-2.141.449zM31.832 34.16c-.223-.789.227-2.594 1.129-2.027s.563 2.703-.227 2.93-1.691-.68-1.238-1.578zm-.898-7.324c.563 1.125.676 3.379 2.367 2.363 1.348-.676 1.348-2.477 0-3.266-1.016-.562-1.578 0-1.918 1.238zm-6.875 9.352c-1.125.563-1.238 2.816-.227 3.379 1.691 1.016 3.496-1.801 1.918-3.152-.676-.566-1.805-.789-2.027.449zm8.156 21.969c-.262.672-.199 1.477.336 2.207.328.445.797.734 1.332.867 1.152.289 2.434-.094 3.473-.594 2.816-1.352-1.129-3.715-2.707-3.945-1.152-.086-2.082.57-2.434 1.465zm-7.348-1.266c-.781-.73-1.207-1.75-.379-2.664.695-.762 1.793-1.41 2.84-1.477 2.25-.336 6.195 2.367 3.492 4.395-1.109.949-2.969 1-4.316.668-.535-.133-1.156-.473-1.637-.922zM12.906 43.625l.336.563c-.113-.113-.113-.227-.227-.34.227-.562.789-.785 1.465-.785 1.352.113 2.367 3.039 2.82 4.055-.227.223-.453.563-.906.676-1.461.227-3.039-3.156-3.488-4.168zm18.816.785c-.789.227-.453 1.242.109 1.805 1.016-.562.68-2.48-.676-2.141zm-5.184-2.926c-1.016.563-.789 2.703.336 3.043 1.914.672 2.031-1.691 1.465-2.82-.453-.902-1.238-.902-1.914 0zm-7.66 3.379c-.906.449.559 1.578 1.348 1.238.793-.113.793-.902-.223-1.465-.566-.227-.34-.562-.566-.113zm-3.844-8.223c-.387-.656-1.031-1.051-2.02-.766-1.191.344-2.309 1.602-2.027 2.902.563 2.594 4.055 4.168 4.508.676.105-.836.008-2.016-.461-2.812zm-4.723-12.172l-.449 1.691c.449-2.48 2.59-1.352 3.828-.34-.676 2.48-4.168 1.352-3.379-1.352zm2.211 5.801a1.44 1.44 0 0 1 .637-.074c.719.078 1.336.641 1.66 1.258 1.242 2.367-2.594 4.059-3.605 1.918-.301-.637-.309-1.387.07-2.004.289-.473.719-.922 1.238-1.098zm3.199-7.941v1.129c.563-1.129.785-4.734 2.816-3.609 1.688 1.016.449 5.41-1.016 6.313-2.703 1.578-3.719-3.27-1.801-3.832zm-1.691-4.395c-.789.34-1.918 3.043-1.125 3.832 1.348 1.574 2.926-1.578 2.477-2.93-.562-1.465-1.801-.562-2.254.676zm6.086-1.691c-1.016-.113-2.254 1.918-1.469 2.48.902.676 4.059-1.129 3.609-2.48-.34-1.352-2.031-.785-2.707.113zm2.027-2.027l.227-.902c-.902 1.016-2.82 2.145-4.172 1.242-2.367-1.691 1.578-5.07 3.605-4.848 2.254.566 2.594 3.719.34 4.508zm3.715-4.844c-1.125 2.703 3.609.336 4.285-.676 1.578-2.254-.449-5.07-2.594-2.367-.676.902-1.691 2.703-1.238 3.945zm5.184-.34l.902 1.578c-.789-1.238.113-3.266 1.016-4.281 2.141-2.367 4.504-1.016 2.477 1.691-.898 1.352-4.395 4.617-4.395 1.012zm8.113-3.719c.902 2.367 5.523-.898 1.918-1.238-1.016 0-1.805.676-1.918 1.805zm4.508 0l-.113.902c1.129-1.578 2.816-2.367 3.605-.113.449 1.242-.789 3.605-2.477 2.816-1.129-.449-1.129-2.816-1.016-3.605zm5.523.902c-.902 1.129-.34 3.945 1.238 4.395 2.027.789 3.828-2.027 2.477-3.719-1.238-1.465-3.152-1.012-4.055.34zm5.855 2.141c.676.902 2.141 2.594 3.605 2.027 1.242-.562.566-2.363-.562-3.039-1.012-.453-3.043-.113-3.043 1.352zm8.563 10.254c-.559 1.465.793 2.48 2.031 1.465 1.465-1.238-.34-2.59-1.805-1.687zm-3.715-4.168l1.352.223c-1.242-.562-.789-2.59.336-3.039 2.141-1.129 6.535 3.039 4.508 5.07-1.578 1.578-5.293-.902-6.195-2.254zm7.887 5.973c-1.691 1.012-3.379 3.266-1.578 4.957 1.805 1.914 4.395-.34 4.055-2.594-.336-2.141-2.816-3.492-4.168-1.238zm1.352 7.098v.449c1.012-1.238 2.703.227 2.93 1.352.449 1.355-1.125 3.383-2.59 2.48-1.355-.789-1.016-3.379-.34-4.281zm-.453 5.41c-1.238.785-1.012 4.168 0 4.957 1.691 1.125 3.047-1.465 2.707-2.816-.223-1.129-1.691-2.594-2.82-1.691zm-2.141 5.52c-4.844 2.703 2.027 6.758 2.934 2.703.223-1.352-1.691-3.832-2.82-1.914zm-1.801 5.07c-1.687.789-3.605 2.93-3.266 4.957.449 2.703 4.617 0 5.18-1.578.453-1.352-.449-4.395-2.363-3.266zm-16.484 6.91c-.262.797-.191 1.684.371 2.328.789.902 2.594.676 3.492.113 2.48-1.352 0-5.184-2.363-4.168-.707.301-1.25.973-1.5 1.727zm-12.922-39.25c1.238 2.367 5.293.68 6.422-.789.898-1.012.789-2.363-.566-3.039-1.238-.789-2.926.227-4.055 1.012-.898.676-3.379 3.379-.789 3.605zm-6.422 9.918c-1.129.789.898 1.012 1.688.563.676-.449 1.805-2.141.563-2.48-1.012-.449-2.027 1.465-2.367 2.031zm-2.891 2.449c.238-.539.348-1.109.258-1.645-.273-1.676-2.211-3.187-3.902-2.496-2.594 1.016-2.707 6.762.785 6.422 1.168-.078 2.332-1.098 2.859-2.281zm2.43-4.187c-.34.059-.711 0-1.203-.16-.676-.219-.98-.77-1.266-1.371-1.129-2.363 2.137-9.012 5.18-5.859 1.289 1.336.988 3.336.145 4.82-.445.785-1.043 1.461-1.754 2.016-.41.316-.738.496-1.102.555zm1.023 6.133l-.68-.789c.453.789.34 1.691-.336 2.363-1.578 1.355-3.492-.449-2.027-1.914.902-.902 2.59-1.012 3.043.34zm9.371-5.191l-.582.906c1.238-1.687 4.281-9.012-.453-8.109-2.816.676-6.195 6.535-3.156 8.789 1.582 1.238 3.496-.34 4.059-1.805l-.32.801m6.066-4.969h.789c1.691-.113 3.605 1.465 4.844 0 2.254-2.254-2.141-5.746-4.281-5.746-3.383-.113-5.52 5.184-1.352 5.746zm10.93 2.367l-.566-.34c1.355 1.129 2.594-.789 3.27-1.691 1.129-1.801.676-2.703-.676-4.168-1.125-1.125-2.594-2.027-3.941-.449-1.691 2.027-.227 5.406 1.914 6.648zm4.957 6.195l-.113.34c1.129.563 2.254-.676 2.703-1.578.902-2.254-1.461-6.535-4.055-6.086-4.281 1.016.227 8.563 1.465 7.324zm.227 14.422l.227 1.238c.898.676 2.363.566 3.039-.449 1.129-1.352.34-3.941-1.578-3.832-1.238 0-2.699 2.145-1.687 3.043zm0 0" fill-rule="evenodd"/></g><g clip-path="url(#C)"><path fill="#673a15" d="M43.777 76.637c.469-7.187-2.367-16.223-7.773-23.098-.676-.789-1.355-1.691-1.918-2.594-3.043-2.023-7.211-2.703-13.18-.562 1.574-1.238 3.379-2.141 5.293-2.703-2.59-1.691-3.941-4.395-4.055-6.984.449 3.828 3.043 5.746 5.633 6.762 1.578-.227 3.266-.117 4.844.449-1.238-2.93-2.027-6.086-2.477-9.242-1.578-2.93-4.844-5.855-10.027-4.957 3.152-.789 6.984 0 9.801 2.93-.34-3.492-.113-6.758.34-9.578-.789 8.004.898 14.426 3.715 19.043 0-.227 0-.562-.109-.902-.453-4.168.336-8.562 1.801-12.504.789-3.043.566-6.762-2.93-9.355 2.031 1.355 3.719 3.609 4.172 6.539 1.352-2.82 3.039-5.297 4.73-7.211-6.535 8.563-6.762 18.027-5.297 23.887.328 1.23.965 2.359 1.586 3.465.535.953 1.07 1.926 2.293 2.051 1.844.184 2.227-1.617 2.883-2.926 1.805-4.734 2.254-11.945-2.816-16.902 3.152 2.254 5.52 6.086 5.859 10.703 1.801-4.391 2.93-9.574-1.125-15.773 1.125 1.352 1.914 2.93 2.59 4.395.789-2.703 2.703-4.73 4.844-5.746-3.492 1.918-4.281 5.184-4.055 8 .336 1.578.563 3.156.449 4.734 3.043-3.383 7.098-4.848 10.816-4.621-6.086.227-9.465 4.281-11.266 8.34a19.6 19.6 0 0 1-1.016 3.379c-.336.676-.562 1.352-.789 1.914 1.129-1.012 2.367-1.465 4.508-1.914 2.59-.453 6.195-1.578 7.438-6.309-.113 2.93-2.367 5.855-4.961 7.211 2.82.785 4.848 2.816 5.859 5.07-1.914-3.492-4.957-4.395-7.77-4.285h-.117l-.465.105c-2.656.668-4.492 2.387-5.668 4.816-1.406 2.906.086 5.391 1.484 7.98 2.59 4.805 3.66 11.313 3.75 16.395.027 1.719-6.988 1.715-6.875 0zm0 0" fill-rule="evenodd"/></g></svg>