<svg xmlns="http://www.w3.org/2000/svg" width="212" height="44" fill="none" xmlns:v="https://vecta.io/nano"><rect width="212" height="44" rx="8" fill="#000"/><path d="M60.438 15.227V26.5h1.406v-4.023h2.836c2.117 0 3.625-1.492 3.625-3.602 0-2.148-1.477-3.648-3.609-3.648h-4.258zm1.406 1.25h2.484c1.633 0 2.531.851 2.531 2.398 0 1.492-.93 2.352-2.531 2.352h-2.484v-4.75zm11.5 10.172c2.398 0 3.883-1.656 3.883-4.359 0-2.711-1.484-4.359-3.883-4.359s-3.883 1.648-3.883 4.359c0 2.703 1.484 4.359 3.883 4.359zm0-1.211c-1.594 0-2.492-1.156-2.492-3.148 0-2 .898-3.149 2.492-3.149s2.492 1.149 2.492 3.149c0 1.992-.898 3.148-2.492 3.148zm15.953-7.359h-1.352l-1.656 6.734h-.125l-1.883-6.734h-1.289l-1.883 6.734h-.125l-1.656-6.734h-1.359l2.359 8.422h1.359l1.875-6.516h.125l1.883 6.516h1.367l2.359-8.422zm4.524 1.039c1.336 0 2.227.984 2.258 2.477h-4.641c.102-1.492 1.039-2.477 2.383-2.477zm2.219 5.203c-.352.742-1.086 1.141-2.172 1.141-1.43 0-2.359-1.055-2.43-2.719v-.062h6.055v-.516c0-2.617-1.383-4.234-3.656-4.234-2.312 0-3.797 1.719-3.797 4.367 0 2.664 1.461 4.351 3.797 4.351 1.844 0 3.156-.891 3.547-2.328H96.04zm3.242 2.18h1.344v-5.219c0-1.187.93-2.047 2.211-2.047a5.44 5.44 0 0 1 .86.078v-1.344a5.77 5.77 0 0 0-.672-.039c-1.117 0-2.086.578-2.336 1.398h-.125v-1.25h-1.281V26.5zm8.898-7.383c1.336 0 2.227.984 2.258 2.477h-4.641c.102-1.492 1.04-2.477 2.383-2.477zm2.219 5.203c-.352.742-1.086 1.141-2.172 1.141-1.43 0-2.359-1.055-2.43-2.719v-.062h6.055v-.516c0-2.617-1.383-4.234-3.656-4.234-2.313 0-3.797 1.719-3.797 4.367 0 2.664 1.461 4.351 3.797 4.351 1.844 0 3.156-.891 3.547-2.328H110.4zm6.36 2.328c1.164 0 2.164-.555 2.695-1.492h.125V26.5h1.281V14.734h-1.343v4.672h-.118c-.476-.922-1.468-1.476-2.64-1.476-2.141 0-3.539 1.719-3.539 4.359 0 2.648 1.382 4.359 3.539 4.359zm.312-7.508c1.524 0 2.477 1.219 2.477 3.149 0 1.945-.946 3.148-2.477 3.148-1.539 0-2.461-1.18-2.461-3.148 0-1.961.93-3.149 2.461-3.149zm14.462 7.508c2.133 0 3.531-1.726 3.531-4.359 0-2.649-1.391-4.359-3.531-4.359-1.156 0-2.18.57-2.641 1.476h-.125v-4.672h-1.344V26.5h1.282v-1.344h.125c.531.938 1.531 1.492 2.703 1.492zm-.313-7.508c1.539 0 2.453 1.18 2.453 3.149s-.914 3.148-2.453 3.148c-1.531 0-2.484-1.203-2.484-3.148s.953-3.149 2.484-3.149zm6.04 10.406c1.492 0 2.164-.578 2.882-2.531l3.29-8.937h-1.43l-2.305 6.93h-.125l-2.312-6.93h-1.453l3.117 8.43-.157.5c-.351 1.016-.773 1.383-1.546 1.383-.188 0-.399-.008-.563-.039V29.5a3.99 3.99 0 0 0 .602.047zm17.391-3.047l3.898-11.273h-2.148l-2.813 8.922h-.132l-2.836-8.922h-2.227l3.938 11.273h2.32zm8.016-7.18c1.164 0 1.93.813 1.969 2.078h-4.024c.086-1.25.899-2.078 2.055-2.078zm1.984 4.828c-.281.633-.945.984-1.906.984-1.273 0-2.094-.891-2.141-2.312v-.101h5.969v-.625c0-2.695-1.461-4.313-3.898-4.313-2.477 0-4.016 1.727-4.016 4.477s1.516 4.414 4.031 4.414c2.016 0 3.446-.969 3.797-2.524h-1.836zm3.547 2.352h1.938v-4.937c0-1.195.875-1.977 2.133-1.977.328 0 .843.055.992.109v-1.797c-.18-.055-.524-.086-.805-.086-1.101 0-2.023.625-2.258 1.469h-.132v-1.328h-1.868V26.5zm13.501-5.672c-.203-1.797-1.532-3.047-3.727-3.047-2.57 0-4.078 1.649-4.078 4.422 0 2.813 1.516 4.469 4.086 4.469 2.164 0 3.508-1.203 3.719-2.992h-1.844c-.203.891-.875 1.367-1.883 1.367-1.32 0-2.117-1.047-2.117-2.844 0-1.773.789-2.797 2.117-2.797 1.063 0 1.703.594 1.883 1.422h1.844zm5.117-1.508c1.164 0 1.93.813 1.969 2.078h-4.024c.086-1.25.899-2.078 2.055-2.078zm1.985 4.828c-.282.633-.946.984-1.907.984-1.273 0-2.093-.891-2.14-2.312v-.101h5.968v-.625c0-2.695-1.461-4.313-3.898-4.313-2.477 0-4.016 1.727-4.016 4.477s1.516 4.414 4.032 4.414c2.015 0 3.445-.969 3.796-2.524h-1.835zm3.625 2.352h1.937V14.648h-1.937V26.5zM23.325 13l9.325 16H14l9.325-16z" fill="#fff"/><path stroke="#5e5e5e" d="M43.5 0v44"/></svg>